<?xml version="1.0" encoding="iso-8859-1"?>
<svg version="1.1" id="Capa_1" xmlns="http://www.w3.org/2000/svg" xmlns:xlink="http://www.w3.org/1999/xlink" x="0px" y="0px"
	 fill="#FFFFFA" width="22px" height="22px" viewBox="0 0 32.004 32.004" xml:space="preserve">
<g>
	<g id="key">
		<path d="M22.004,0.002c-5.523,0-10,4.478-10,10c0,1.285,0.269,2.501,0.713,3.629L0.568,25.779
			C0.217,26.131,0,26.465,0,27.002v3c0,1.07,0.929,2,2,2h3c0.536,0,0.875-0.215,1.226-0.564l1.435-1.436h2.343c1.104,0,2-0.896,2-2
			v-2h2c1.104,0,2-0.896,2-2v-2.344l2.369-2.371c1.129,0.445,2.344,0.715,3.631,0.715c5.521,0,10-4.478,10-10
			S27.525,0.002,22.004,0.002z M22.004,18.002c-1.48,0-2.852-0.43-4.041-1.132l-0.344,0.343l-1.125,1.125l-1.905,1.906
			c-0.375,0.375-0.586,0.883-0.586,1.414v2.344h-2c-1.104,0-2,0.895-2,2v2H7.661c-0.53,0-1.039,0.211-1.414,0.586l-1.418,1.418
			l-2.826-0.004L2,27.152l11.665-11.645c0,0,0,0.001,0.001,0.002l1.469-1.469c-0.702-1.189-1.132-2.56-1.132-4.04
			c0-4.418,3.583-8,8-8s8,3.582,8,8S26.422,18.002,22.004,18.002z"/>
		<path d="M27.82,8.241c-1.121-1.562-2.486-2.925-4.055-4.054C23.51,4.002,23.18,3.956,22.883,4.06
			c-1.389,0.489-2.34,1.439-2.826,2.828C20.02,6.992,20.002,7.1,20.002,7.207c0,0.199,0.062,0.396,0.182,0.563
			c1.125,1.564,2.488,2.928,4.053,4.053c0.257,0.184,0.584,0.231,0.882,0.128c1.391-0.486,2.342-1.438,2.83-2.828
			c0.036-0.104,0.055-0.212,0.055-0.319C28.002,8.605,27.94,8.408,27.82,8.241z M24.82,11.012C23.341,9.95,22.054,8.662,21,7.219
			c0.387-1.103,1.111-1.827,2.182-2.221c1.479,1.065,2.764,2.349,3.816,3.811C26.607,9.904,25.885,10.624,24.82,11.012z"/>
	</g>
</g>
</svg>
